<svg xmlns="http://www.w3.org/2000/svg" viewBox="-1.2000000000000002 -2.4000000000000004 26.4 32.4" fill="none" x="0px" y="0px"><path fill-rule="evenodd" clip-rule="evenodd" d="M17.451 7.54511C18.5479 8.07705 19.5642 8.56992 20.2898 9.06293C21.0245 9.56217 22.0696 10.4641 22.0712 11.9749C22.0729 13.4857 21.0298 14.3899 20.2961 14.8908C19.5717 15.3854 18.5564 15.8804 17.4607 16.4148L7.75646 21.1489C7.08703 21.4757 6.39833 21.812 5.81235 21.9982C5.2016 22.1922 4.05797 22.4367 3.01092 21.6558C1.96388 20.8749 1.87212 19.7091 1.88395 19.0683C1.8953 18.4536 2.02121 17.6976 2.1436 16.9627L2.52434 14.6721C2.65707 13.8735 2.72343 13.4742 3.00322 13.2371C3.28301 13 3.68777 13 4.49727 13H12C12.5523 13 13 12.5523 13 12C13 11.4477 12.5523 11 12 11H4.50283C3.69401 11 3.2896 11 3.0099 10.7632C2.7302 10.5263 2.66353 10.1275 2.5302 9.3297L2.14625 7.03249C2.02337 6.29884 1.89692 5.54379 1.88504 4.92958C1.87266 4.28901 1.96348 3.12446 3.00829 2.34272C4.05309 1.56099 5.19595 1.80249 5.80699 1.99514C6.39288 2.17986 7.08155 2.51425 7.75071 2.83916L17.451 7.54511Z" fill="black"/></svg>