<?xml version="1.0" encoding="UTF-8" standalone="no" ?>
<!DOCTYPE svg PUBLIC "-//W3C//DTD SVG 1.1//EN" "http://www.w3.org/Graphics/SVG/1.1/DTD/svg11.dtd">
<svg xmlns="http://www.w3.org/2000/svg" xmlns:xlink="http://www.w3.org/1999/xlink" version="1.1" width="1080" height="1080" viewBox="0 0 1080 1080" xml:space="preserve">
<desc>Created with Fabric.js 5.2.4</desc>
<defs>
</defs>
<g transform="matrix(1 0 0 1 540 540)" id="791ec0ad-36cf-483b-a4d2-e669883c9226"  >
</g>
<g transform="matrix(1 0 0 1 540 540)" id="5eef5316-5858-461b-ac2b-6d433e2e2ad4"  >
<rect style="stroke: none; stroke-width: 1; stroke-dasharray: none; stroke-linecap: butt; stroke-dashoffset: 0; stroke-linejoin: miter; stroke-miterlimit: 4; fill: rgb(255,255,255); fill-rule: nonzero; opacity: 1; visibility: hidden;" vector-effect="non-scaling-stroke"  x="-540" y="-540" rx="0" ry="0" width="1080" height="1080" />
</g>
<g transform="matrix(2.62 0 0 2.62 595.3 419.97)"  >
<path style="stroke: none; stroke-width: 1; stroke-dasharray: none; stroke-linecap: butt; stroke-dashoffset: 0; stroke-linejoin: miter; stroke-miterlimit: 4; fill: rgb(28,207,148); fill-rule: nonzero; opacity: 1;" vector-effect="non-scaling-stroke"  transform=" translate(-190.08, -82.66)" d="M 256.934052 93.372971 C 257.50238 103.041885 254.002869 111.017105 249.18483 119.126747 C 245.787216 115.919769 242.458282 113.007294 239.465942 109.782486 C 238.767578 109.029869 238.772781 107.052856 239.197235 105.916763 C 244.445145 91.870613 240.827164 85.86795 225.933517 84.712219 C 208.524368 83.361298 192.183838 88.076836 176.523178 94.885597 C 165.573486 99.646187 155.241089 105.813477 144.547684 111.182617 C 139.673645 113.629868 137.263901 117.150108 137.970367 122.697639 C 138.19931 124.495415 138.006287 126.346931 138.006287 129.982727 C 132.525055 124.964424 128.051056 120.955391 123.720543 116.796928 C 123.15802 116.256752 123.107147 114.922333 123.203514 113.995758 C 125.458099 92.316864 129.313202 71.092079 141.634262 52.44297 C 146.612335 44.90818 152.871719 38.690422 161.853745 36.258762 C 172.258087 33.442036 180.904556 37.296482 188.095947 44.615875 C 191.618027 48.200634 194.485291 52.42878 198.136093 56.971992 C 192.693832 58.432438 188.437668 59.718571 184.101776 60.621964 C 183.1866 60.812641 181.81636 59.781082 180.945892 58.992481 C 179.725159 57.886593 178.864914 56.392456 177.696121 55.21801 C 171.272614 48.763443 165.326111 48.366375 159.080704 54.874008 C 148.525085 65.872818 144.86792 80.023987 141.537338 94.782692 C 150.851379 90.306137 159.352707 85.765701 168.203323 82.059303 C 187.701202 73.894135 207.706314 67.908478 229.285858 69.942131 C 244.496368 71.375572 254.220764 79.382042 256.934052 93.372971 z" stroke-linecap="round" />
</g>
<g transform="matrix(2.62 0 0 2.62 439.55 548.19)"  >
<path style="stroke: none; stroke-width: 1; stroke-dasharray: none; stroke-linecap: butt; stroke-dashoffset: 0; stroke-linejoin: miter; stroke-miterlimit: 4; fill: rgb(28,207,149); fill-rule: nonzero; opacity: 1;" vector-effect="non-scaling-stroke"  transform=" translate(-130.53, -131.69)" d="M 113.741165 69.59507 C 114.311386 69.614304 114.552795 69.563156 114.63205 69.653801 C 116.687202 72.004112 113.243568 84.051514 110.320747 84.754639 C 109.999992 84.83181 109.657425 84.813057 109.328423 84.861961 C 94.271606 87.100212 90.687584 94.245094 98.011009 107.79435 C 106.460159 123.426323 119.347252 134.985474 133.658081 144.896362 C 142.92218 151.312149 152.999771 156.546677 162.642715 162.425537 C 166.179886 164.582001 169.40831 165.346237 173.109894 162.643372 C 175.208328 161.111084 177.827377 160.291824 181.755554 158.413208 C 179.958252 165.351364 178.510345 171.126694 176.907059 176.858566 C 176.736206 177.46936 175.715149 177.95401 174.991058 178.282104 C 155.301575 187.203873 135.05719 194.260361 113.108971 193.748947 C 106.770439 193.601257 100.144875 192.157364 94.242561 189.816147 C 82.917809 185.324005 77.412766 174.698135 79.88073 162.725372 C 81.161484 156.512085 83.874542 150.59404 86.330154 143.401474 C 90.637718 147.551468 93.8694 150.528244 96.896538 153.700241 C 97.480247 154.311874 97.435143 155.701111 97.359421 156.707504 C 97.300575 157.489471 96.711594 158.221863 96.411102 158.996811 C 92.030121 170.294769 95.216759 176.318619 107.079781 178.290771 C 121.228249 180.642838 134.626373 177.140503 148.534958 172.659058 C 139.717194 166.844467 131.35434 161.786255 123.48777 156.047745 C 106.962456 143.992813 91.886795 130.481842 83.018318 111.449951 C 73.271767 90.533661 83.403191 72.633965 106.363113 70.088753 C 108.677635 69.832176 111.011765 69.752518 113.741165 69.59507 z" stroke-linecap="round" />
</g>
<g transform="matrix(2.62 0 0 2.62 615.73 634.85)"  >
<path style="stroke: none; stroke-width: 1; stroke-dasharray: none; stroke-linecap: butt; stroke-dashoffset: 0; stroke-linejoin: miter; stroke-miterlimit: 4; fill: rgb(28,207,148); fill-rule: nonzero; opacity: 1;" vector-effect="non-scaling-stroke"  transform=" translate(-197.9, -164.82)" d="M 257.00708 167.915527 C 256.555878 178.315781 251.664169 185.802734 242.74913 189.498138 C 235.85672 192.355164 228.161896 193.276398 219.646576 195.344116 C 221.149384 189.444061 221.990311 185.27002 223.369751 181.282272 C 223.760834 180.151764 225.646378 178.993164 226.976074 178.815155 C 243.674301 176.579895 244.609711 167.648758 238.086777 155.26355 C 232.405731 144.476898 224.05098 135.964661 214.17775 127.646187 C 213.766983 135.44133 213.545441 142.621017 212.981689 149.773712 C 211.425034 169.523682 207.414459 188.656586 197.67981 206.175247 C 193.426895 213.828857 188.075409 220.597137 180.120331 224.823074 C 171.986786 229.143875 163.826508 229.120209 155.804886 224.611603 C 148.330658 220.41066 143.103317 214.070221 138.790253 206.322327 C 143.312393 205.097092 147.430573 203.82251 151.63237 202.951141 C 152.723801 202.724808 154.289642 203.495621 155.256378 204.278915 C 156.519348 205.302216 157.304474 206.890945 158.466507 208.067169 C 165.063202 214.744431 172.093475 215.309204 177.684891 207.843689 C 183.07045 200.65303 187.640869 192.425171 190.657654 183.970825 C 198.270172 162.637299 199.294769 140.322174 197.850037 117.883629 C 197.75293 116.375313 196.508133 114.566681 195.25798 113.582703 C 192.43222 111.358597 189.269012 109.563225 185.231628 106.935059 C 191.727692 104.957367 197.213577 103.202034 202.763763 101.681435 C 203.687561 101.428345 205.066971 101.939133 205.939926 102.532379 C 223.417709 114.410072 239.811813 127.585464 250.256348 146.360092 C 253.776382 152.687531 254.823792 160.390503 257.00708 167.915527 z" stroke-linecap="round" />
</g>
<g transform="matrix(2.62 0 0 2.62 537.13 548.53)"  >
<path style="stroke: none; stroke-width: 1; stroke-dasharray: none; stroke-linecap: butt; stroke-dashoffset: 0; stroke-linejoin: miter; stroke-miterlimit: 4; fill: rgb(29,207,149); fill-rule: nonzero; opacity: 1;" vector-effect="non-scaling-stroke"  transform=" translate(-167.84, -131.82)" d="M 181.009888 128.341034 C 181.009933 128.956223 181.009933 129.122406 181.009933 129.288589 C 181.009949 139.672409 179.610107 141.799835 169.91655 145.500305 C 168.841522 145.910675 167.396942 145.628036 166.197601 145.349197 C 165.266541 145.132721 164.444016 144.432175 163.58461 143.927444 C 155.073837 138.929001 153.510056 135.691925 155.357498 126.028702 C 155.591049 124.807076 156.798218 123.498116 157.907318 122.760208 C 167.572693 116.329727 168.522156 116.27047 178.246262 122.835358 C 179.660721 123.790276 180.112564 126.171036 181.009888 128.341034 z" stroke-linecap="round" />
</g>
</svg>